inDegrees=no
num_controls=7
num_derivatives=13
num_iterations=99
num_multipliers=7
num_parameters=0
num_slacks=7
num_states=26
objective=5.144784
objective_accelerations=0.635388
objective_balance=0.019632
objective_effort=0.164132
objective_height=4.251011
objective_ligament=0.074620
solver_duration=1086.244856
status=Solve_Succeeded
success=true
DataType=double
version=3
OpenSimVersion=4.4-2022-07-23-0e9fedc
endheader
time	/jointset/ground_pelvis/pelvis_tilt/value	/jointset/ground_pelvis/pelvis_tx/value	/jointset/ground_pelvis/pelvis_ty/value	/jointset/hip_l/hip_flexion_l/value	/jointset/hip_l/hip_adduction_l/value	/jointset/hip_l/hip_rotation_l/value	/jointset/back/lumbar_extension/value	/jointset/patellofemoral_l/patellar_flexion_l/value	/jointset/knee_l/knee_flexion_l/value	/jointset/knee_l/knee_adduction_l/value	/jointset/knee_l/knee_rotation_l/value	/jointset/ankle_l/ankle_angle_l/value	/jointset/subtalar_l/subtalar_angle_l/value	/jointset/ground_pelvis/pelvis_tilt/speed	/jointset/ground_pelvis/pelvis_tx/speed	/jointset/ground_pelvis/pelvis_ty/speed	/jointset/hip_l/hip_flexion_l/speed	/jointset/hip_l/hip_adduction_l/speed	/jointset/hip_l/hip_rotation_l/speed	/jointset/back/lumbar_extension/speed	/jointset/patellofemoral_l/patellar_flexion_l/speed	/jointset/knee_l/knee_flexion_l/speed	/jointset/knee_l/knee_adduction_l/speed	/jointset/knee_l/knee_rotation_l/speed	/jointset/ankle_l/ankle_angle_l/speed	/jointset/subtalar_l/subtalar_angle_l/speed	/forceset/tau_hip_flexion_l	/forceset/tau_hip_adduction_l	/forceset/tau_hip_rotation_l	/forceset/tau_knee_flexion_l	/forceset/tau_ankle_angle_l	/forceset/tau_subtalar_angle_l	/forceset/tau_lumbar_extension	lambda_cid13_p0	lambda_cid13_p1	lambda_cid13_p2	lambda_cid13_p3	lambda_cid13_p4	lambda_cid13_p5	lambda_cid14_p0	/jointset/ground_pelvis/pelvis_tilt/accel	/jointset/ground_pelvis/pelvis_tx/accel	/jointset/ground_pelvis/pelvis_ty/accel	/jointset/hip_l/hip_flexion_l/accel	/jointset/hip_l/hip_adduction_l/accel	/jointset/hip_l/hip_rotation_l/accel	/jointset/back/lumbar_extension/accel	/jointset/patellofemoral_l/patellar_flexion_l/accel	/jointset/knee_l/knee_flexion_l/accel	/jointset/knee_l/knee_adduction_l/accel	/jointset/knee_l/knee_rotation_l/accel	/jointset/ankle_l/ankle_angle_l/accel	/jointset/subtalar_l/subtalar_angle_l/accel	gamma_cid13_p0	gamma_cid13_p1	gamma_cid13_p2	gamma_cid13_p3	gamma_cid13_p4	gamma_cid13_p5	gamma_cid14_p0
1.5	-0.3305947181150777	0.06712867190669944	0.802421880715471	0.9416933603956817	-0.3632879971530897	-0.061769564634667	-0.3213953042273932	0.7721392518086745	0.7721392518086364	-0.05180963354266435	-0.1739658984778147	0.2749741609358947	0.1484448083151038	0.4397998543003738	0.2534849950876276	0.4394991588227126	-2.142961761285139	-0.0001302295610239033	-0.6042781439095627	0.6180152608700735	-2.085220810102807	-2.085220810103217	-0.2829841200232879	0.01491305387327671	-0.5506188344530789	-0.2124137930803064	-0.1266834792269516	0.0340324554658268	0.004531182103294656	-0.120280770186058	-0.05572079402179303	0.01479177344140407	0.1219321077151206	-40.96050767518143	-2.011484696354286	3.19146616854235	-0.1820067963426062	-431.331981959581	-61.46126892503237	-12.24872145687837	0.4774195021789292	0.4563777679905717	-0.7063734685321488	-1.126802338437918	0.2608164860501864	-0.3573716650517644	1.418731494791745	-1.063365946233076	-1.063365946232907	-0.3745005589292245	0.3307625226108163	-0.5120426792752153	0.360551157787986	2.022689400723511e-07	3.008761576509151e-06	-2.100458310639442e-06	2.973914812919389e-07	5.654958970844505e-07	2.202779262322897e-06	5.046483118199377e-07
1.51	-0.3261730979611723	0.06968605659469992	0.8067806791822738	0.9202092339463785	-0.3632774259439595	-0.06783390804167622	-0.3151458942658761	0.7512362155755115	0.7512362155751594	-0.05465795659237981	-0.1738050781699228	0.2694428415990616	0.1463373302687683	0.4444371723440656	0.2579554305471144	0.4321651229791267	-2.153552424159631	0.002259709841753355	-0.6084862188682011	0.6317657016928566	-2.095082792776856	-2.095082792777158	-0.2866775954219515	0.01730661754229744	-0.5555428394607669	-0.2090318832031152	-0.1223228247139353	0.0330726696096162	0.005369277169242121	-0.117997440962638	-0.05451705195478914	0.01334731927248022	0.118309361140128	-40.53251454245538	-1.510036479481638	3.16970660342762	-0.1983952759988634	-428.4498136438301	-60.83199739028312	-13.10444300613631	0.44385963209643	0.4370352015852212	-0.7611771798472676	-0.9785125308704896	0.2298872889726898	-0.4364433778712986	1.338045914446437	-0.9021666088935278	-0.9021666088771491	-0.3655473878794995	0.2020230636906351	-0.4670451792638234	0.3337032119827815	9.993963048470938e-08	4.540161451164853e-06	-9.460230620634018e-07	5.484603648984175e-07	3.678163602310345e-07	2.527403464530523e-06	4.974519783311032e-07
1.52	-0.3217077102915537	0.07228707739062686	0.8110632855831257	0.8986285380145014	-0.3632425944164985	-0.07393711579160896	-0.3087620107884586	0.7302436490790848	0.7302436490791651	-0.057542969666131	-0.1736186482711253	0.2638653890585982	0.1442650097830624	0.4485533574531964	0.2622122166729178	0.4242607456324304	-2.162275657790669	0.004721834107827013	-0.6120510124910002	0.6449099640526813	-2.103126862687021	-2.103126862687216	-0.2903221251224729	0.02003497219706323	-0.5598454751783805	-0.2053822809540083	-0.117962170201096	0.03211288375320381	0.00620737224099473	-0.1157141117394012	-0.05331330988789598	0.01190286510317812	0.114686614565004	-40.10056651542308	-1.014543800257288	3.154909014860707	-0.2327325188966976	-425.533108339884	-60.24285002602307	-13.95837151544771	0.3731929152658357	0.4136479012545018	-0.8204417691542184	-0.7533164897473524	0.2752534587087546	-0.2287153978842139	1.297495802199772	-0.6997833934564744	-0.6997833934564461	-0.3647114193013544	0.3977207197592463	-0.3877688212596547	0.4140896321708982	5.607171348647345e-08	5.156220449954145e-06	-4.772069767310318e-07	6.469977204324822e-07	2.952539439578211e-07	2.658815169330145e-06	4.928062549353035e-07
1.53	-0.3172036832374722	0.07492942991603155	0.8152641149063604	0.8769699031552984	-0.3631828048809602	-0.08007207757802938	-0.3022499255502887	0.7091795701286031	0.7091795701288469	-0.06046472367705692	-0.1734027298763094	0.2582477817030839	0.1422303758723202	0.4521717951198855	0.2662048772758132	0.4158209262530889	-2.169135921994037	0.007245244618099306	-0.6148846742347501	0.6573856179210618	-2.109392620199908	-2.109392620199703	-0.2939986951577601	0.02315952792552122	-0.5635934591995563	-0.2015126566468886	-0.1139122802155755	0.03035802296524814	0.006986732232400575	-0.1130012353670951	-0.05337328342179036	0.01112189391265993	0.1112404966495898	-40.04387248523598	-0.827903262729617	3.288046347368068	0.09406953219359684	-422.9384675626287	-60.34183641188142	-14.81080544133281	0.344150925853073	0.3841733642225862	-0.8683033465479961	-0.6050508740533075	0.2419174518985563	-0.3017585485908831	1.20438032949625	-0.5456238181424783	-0.5456238180822451	-0.363973013478556	0.2713560678737651	-0.3557589261820826	0.3775538095284936	7.431902611448048e-08	4.799729768135386e-06	-7.368612523450539e-07	5.834703273896093e-07	3.556284683010715e-07	2.584938595633765e-06	4.90870554763353e-07
1.54	-0.312665875460078	0.07761012869234754	0.8193780357709571	0.8552521317563404	-0.3630975747194018	-0.08623358937902051	-0.2956167277433778	0.6880617032255573	0.6880617032256615	-0.06342221203258813	-0.1731552593101316	0.252595205360629	0.1402352692005566	0.4553095021259342	0.2698814668551769	0.4068790539047772	-2.174102965734287	0.009809959316794188	-0.6173610154173194	0.6691324778030558	-2.113884453230298	-2.113884453229693	-0.2974689939064796	0.02634540639334639	-0.566839272566142	-0.1974768331579165	-0.1098623902300025	0.0286031621775997	0.007766092221168801	-0.1102883589946691	-0.0534332569555696	0.01034092272262098	0.1077943787341351	-39.98438822096927	-0.6428115597012667	3.422642353521027	0.4000007387251174	-420.3065215739318	-60.47652426547248	-15.66153346138053	0.2770467831369748	0.3504336965489394	-0.9208523629482577	-0.3746723971241379	0.2835142963930376	-0.1572512856483679	1.151737004922118	-0.3449984969570148	-0.3449984969570062	-0.3234571619884373	0.4099852676321081	-0.2873346903407487	0.4473294685411782	7.210092718049689e-08	4.631478648243935e-06	-8.182937247585279e-07	5.585802512247727e-07	3.601046346957341e-07	2.513730411129495e-06	4.862647595286998e-07
1.55	-0.3080991828294488	0.08032587470224113	0.8234000744477885	0.8334945955415426	-0.362986239430052	-0.092418329895257	-0.288869554814236	0.6669081718967369	0.6669081718967133	-0.06641272375648412	-0.1728756370607836	0.2469127936162256	0.1382817175990661	0.4579521273863342	0.2732005393486074	0.3974537009383875	-2.177066467943152	0.0124766038658509	-0.6195173229545914	0.6801771440837215	-2.116504927369156	-2.116504927368968	-0.300576773421275	0.02960259049109955	-0.5695588003836835	-0.1931910597725391	-0.1061553469064038	0.02816102295793547	0.008467873970427144	-0.1070818256726588	-0.0540566175543336	0.008607315376210461	0.1045659122962247	-40.20100441092832	0.04935487638281803	3.424993232624795	1.003308763871319	-417.9430516559801	-59.51724824065471	-16.50158085036927	0.2463531529789729	0.3126824838896859	-0.9645704654966515	-0.2065020192132568	0.2607515249017655	-0.2339587409330366	1.062086847711686	-0.1731339584710819	-0.1731339585334987	-0.2952605335518112	0.287061074187076	-0.2514504776017846	0.4248991924734713	4.630311492509062e-08	4.680112241007847e-06	-6.943836847887728e-07	5.782070836368015e-07	3.001761712800709e-07	2.445596675042221e-06	4.785825504174547e-07
1.56	-0.3035083673951564	0.08307281912869832	0.8273256208545535	0.8117175617273239	-0.362847735297072	-0.09862246113750454	-0.2820156841406834	0.6457379234091496	0.6457379234093173	-0.06943247771227598	-0.1725627477521786	0.2412057488636167	0.1363721633152152	0.4601340628663407	0.2761211501678979	0.3875805998914705	-2.178002485609807	0.01524372804452514	-0.6212391606185825	0.6904720266873573	-2.11722788495285	-2.117227884953079	-0.3033174404291773	0.0329988183224787	-0.5717658742068473	-0.1886773696296571	-0.1024483035830136	0.02771888373816128	0.009169655722546587	-0.1038752923508031	-0.05467997815315834	0.006873708029587916	0.101337445858146	-40.41736055146628	0.7371225998621813	3.433018737730452	1.592257055649275	-415.612677980786	-58.60697916269255	-17.32487237163595	0.1849088270573674	0.2707413617217077	-1.01040197905375	0.03082451131740941	0.3036102223160047	-0.07035731099241324	1.00178026951576	0.03450481407561178	0.03450481407561217	-0.2500346606104834	0.4377940143568964	-0.1848438914643357	0.4929128200419802	7.243010906607268e-08	4.799314835847904e-06	-1.094671496398857e-06	5.832803506301128e-07	3.691504106066319e-07	2.684765857835902e-06	5.362310329132764e-07
1.57	-0.2988979620949748	0.08584717758903879	0.8311503431006128	0.7899405518511198	-0.362682031521695	-0.1048401512964782	-0.2750629508320248	0.6245695338570335	0.6245695338570024	-0.07248060579206578	-0.1722149750293825	0.2354791332883811	0.134507614437504	0.4618478108004094	0.2786996075004363	0.3773009196631289	-2.177068327167262	0.01791062504041402	-0.6222418882801494	0.699943577479219	-2.116135782611857	-2.116135782611899	-0.3062421128454829	0.03656973612467114	-0.5734463944632652	-0.1841882760375114	-0.09813813891161002	0.02550568932045456	0.00979601657927601	-0.1021266938132756	-0.05358056333952692	0.005857106665948821	0.09776287213141115	-40.03330301111148	1.014921672987489	3.498915467746114	1.597894324634082	-413.5960056368256	-58.78558913339902	-18.1262700366624	0.1497652869701741	0.2438702831635514	-1.046044146126441	0.1744283915843886	0.2501339318147127	-0.1060046702190946	0.9001838484800929	0.1935482238007936	0.1935482238290715	-0.3031415106851013	0.3183997958515691	-0.1428480489011869	0.4330484187474338	1.634631112025395e-07	5.006728683283142e-06	-2.150206622483732e-06	5.701616608500273e-07	5.992530283609718e-07	3.308063689230772e-06	6.755428799179307e-07
1.58	-0.2942733878134156	0.08864581509553247	0.8348704099241079	0.768182826935479	-0.3624892778776571	-0.1110660235673378	-0.2680194337425657	0.6034214623841559	0.6034214623841372	-0.07555587219132238	-0.1718311613022623	0.2297390741193454	0.1326891846537024	0.4629678591501162	0.2809769593985387	0.3666495153786243	-2.174145493490253	0.02065370177986288	-0.6228755830009709	0.708628782849488	-2.113164269083277	-2.113164269083132	-0.308745104403578	0.04020701923493046	-0.5744545929664935	-0.1794535508474856	-0.09382797424025822	0.02329249490286769	0.01042237743772546	-0.1003780952758268	-0.05248114852587608	0.00484050530244893	0.09418829840459586	-39.6512784182258	1.288501265773525	3.570713070073336	1.585105566465948	-411.6314035680737	-59.05692060133718	-18.90052801802704	0.06616891018396909	0.21052027483536	-1.08474679028636	0.4285595582096027	0.3188461710275458	0.003449277156504647	0.8445111851968217	0.4103870515930524	0.4103870515930552	-0.1656984889690543	0.4510670759699086	-0.05037954082539559	0.5420391396179099	2.050850100814967e-07	5.157194198573128e-06	-2.705219911296948e-06	5.705542202406862e-07	7.112927112120354e-07	3.65556210294819e-06	7.523936296138634e-07
1.59	-0.2896405499693192	0.09146555285751508	0.8384821857171001	0.7464644985563872	-0.3622687585331876	-0.1172963648772678	-0.2608930576514453	0.5823126778865586	0.5823126778865297	-0.07865415347797841	-0.1714107343564807	0.2239921795633356	0.13091923698551	0.4635146076466663	0.2829032020340463	0.3556538370792386	-2.169182122731899	0.0234444898290189	-0.6230886224159172	0.7164944208378248	-2.108271026502757	-2.108271026502484	-0.3108920939448811	0.0439014389315685	-0.5748303556710187	-0.1745249802535155	-0.08989781546241706	0.02179694210616177	0.01101912761558059	-0.09799767022141199	-0.0522686566955432	0.003208808265227396	0.09084745836750086	-39.61983451355029	1.89431023033689	3.585305319705272	1.946384275048786	-409.903425169746	-58.62546827933416	-19.64222093158271	0.03619321941953522	0.1736877049237993	-1.114622393832764	0.5809701815008408	0.258132645096373	-0.01742781450769085	0.7347879243158529	0.576885501442415	0.576885501461551	-0.235676343339482	0.3316822087375353	-0.01690217361137961	0.4693853135545721	1.796489831109801e-07	5.230372691665992e-06	-2.580953563812946e-06	5.892834749344971e-07	6.631041252658042e-07	3.628761306960515e-06	7.444757472479642e-07
